<svg xmlns="http://www.w3.org/2000/svg" width="32px" height="32px"  viewBox="0 0 24 24"><g>
                <path d="M20.352,8.213c0.38-0.38,0.59-0.89,0.59-1.42c0-0.54-0.21-1.05-0.59-1.43l-1.45-1.46
                    c-0.79-0.78-2.07-0.78-2.86,0l-0.67,0.66c-1.03-0.46-2.17-0.71-3.37-0.71c-1.21,0-2.35,0.25-3.39,0.71l-0.65-0.66
                    c-0.79-0.78-2.07-0.78-2.86,0l-1.45,1.46c-0.79,0.78-0.79,2.07-0.01,2.85l0.65,0.67c-0.45,1.04-0.71,2.18-0.71,3.39
                    c0,4.64,3.78,8.41,8.42,8.41c4.64,0,8.42-3.77,8.42-8.41c0-1.22-0.26-2.37-0.72-3.41L20.352,8.213z M4.362,6.062l1.45-1.45
                    c0.4-0.4,1.04-0.4,1.44,0l0.44,0.43c-1.19,0.71-2.2,1.71-2.91,2.9l-0.42-0.43C3.962,7.112,3.962,6.463,4.362,6.062z M12.002,19.682
                    c-4.09,0-7.42-3.32-7.42-7.41c0-4.1,3.33-7.42,7.42-7.42c4.09,0,7.42,3.32,7.42,7.42C19.422,16.362,16.092,19.682,12.002,19.682z
                    M19.222,7.932c-0.72-1.18-1.72-2.18-2.91-2.89l0.44-0.43c0.39-0.4,1.04-0.4,1.44,0l1.45,1.45c0.2,0.2,0.3,0.45,0.3,0.73
                    c0,0.27-0.1,0.52-0.3,0.72L19.222,7.932z"/>
                <path d="M17.042,12.763h-5.04c-0.11,0-0.2-0.03-0.27-0.08c-0.03-0.02-0.05-0.04-0.07-0.05
                    c-0.1-0.08-0.16-0.2-0.16-0.36v-5.04c0-0.65,1-0.65,1,0v4.53h4.54C17.682,11.763,17.682,12.763,17.042,12.763z"/>
            </g></svg>